# xmcd CD database file
#
# Track frame offsets:
#	150
#	12539
#	28021
#	49348
#	72255
#	99397
#	118960
#	140097
#	166266
#	185943
#	199235
#	223942
#	234558
#
# Disc length: 3400 seconds
#
# Revision: 0
# Processed by: cddbd v1.5.2PL0 Copyright (c) Steve Scherf et al.
# Submitted via: CDex 1.51
#
DISCID=cf0d460d
DTITLE=Lagiewniki Blues - Lagiewniki Blues
DYEAR=2011
DGENRE=Blues
TTITLE0=Jada w dresie
TTITLE1=Biznesmeny
TTITLE2=Piesn stulecia
TTITLE3=Blues na gupio baba
TTITLE4=Kompozytor
TTITLE5=Ministrant blues
TTITLE6=Niy pojada do Luizjany
TTITLE7=Blues motorniczego
TTITLE8=Baba blues
TTITLE9=Siedza w ogródku
TTITLE10=Plyjboj
TTITLE11=Diskomol
TTITLE12=Blues kolynda
EXTD=YEAR: 2011
EXTT0=
EXTT1=
EXTT2=
EXTT3=
EXTT4=
EXTT5=
EXTT6=
EXTT7=
EXTT8=
EXTT9=
EXTT10=
EXTT11=
EXTT12=
PLAYORDER=
